<svg version="1.1" id="Layer_1" xmlns="http://www.w3.org/2000/svg" xmlns:xlink="http://www.w3.org/1999/xlink" x="0px" y="0px"
	 width="100%" viewBox="0 0 704 704" enable-background="new 0 0 704 704" xml:space="preserve">
<path fill="#FEFEFE" opacity="1.000000" stroke="none" 
	d="
M705.000000,168.000000 
	C705.000000,292.355957 705.000000,416.711914 704.534973,541.534912 
	C469.713287,542.001282 235.356644,542.000610 1.000000,542.000000 
	C1.000000,417.644012 1.000000,293.288055 1.463881,168.464371 
	C236.285172,167.997772 470.642578,167.998886 705.000000,168.000000 
M305.082397,265.120117 
	C305.082397,265.120117 305.122192,265.229065 305.781952,265.293762 
	C311.653931,270.893158 317.891663,276.162750 323.310333,282.170990 
	C331.019989,290.719482 338.084930,299.847015 345.518250,308.648651 
	C347.874084,311.438110 350.516235,313.987000 353.045898,316.628204 
	C372.943420,337.402863 392.817719,358.199890 412.769714,378.922058 
	C416.709595,383.014038 418.677795,382.984863 422.898804,379.193726 
	C425.371582,376.972778 427.676300,374.560394 430.000916,372.179718 
	C435.292206,366.760712 435.350281,364.738037 429.801056,359.431030 
	C407.957855,338.541229 386.199829,317.557922 364.075745,296.968658 
	C356.420288,289.844269 347.701141,283.874420 339.643707,277.165955 
	C334.959778,273.266235 330.625000,268.947174 326.074280,264.927216 
	C326.074280,264.927216 326.184845,264.868622 326.083435,264.189178 
	C323.146454,261.426605 320.209473,258.664062 317.133331,255.252579 
	C317.052460,254.818008 316.971588,254.383453 317.431000,253.560211 
	C318.663361,251.358719 321.317810,248.764694 320.840393,247.035126 
	C319.752197,243.092682 321.108917,240.336288 323.456177,238.028473 
	C328.383087,233.184341 333.434662,228.400146 338.897369,224.191345 
	C342.550323,221.376923 346.999420,219.595825 351.455200,217.153351 
	C350.511322,216.602478 350.127319,216.208511 349.699554,216.153320 
	C335.855072,214.367325 322.980621,217.012039 312.352295,226.269592 
	C303.218018,234.225739 294.813995,243.027161 286.227631,251.595703 
	C285.255280,252.566040 284.880585,254.427216 284.776917,255.913544 
	C284.579010,258.750397 280.530945,264.394165 277.944794,263.921753 
	C272.569702,262.939880 270.744354,267.199188 267.765533,269.786346 
	C265.555756,271.705597 265.764496,273.843262 267.736786,275.839539 
	C271.243591,279.389038 274.700012,282.998138 278.383392,286.356445 
	C279.321014,287.211304 281.140320,287.755096 282.367889,287.509399 
	C285.666351,286.849152 290.029236,280.603088 290.074951,277.058777 
	C290.120850,273.503723 294.282135,268.686401 297.546967,269.236694 
	C301.473572,269.898529 303.410309,267.961670 305.082397,265.120117 
M559.256775,418.959595 
	C556.622498,418.959595 553.988281,418.959595 551.093628,418.959595 
	C548.176392,434.763306 545.336121,450.150238 542.238525,466.931152 
	C540.356689,464.086151 539.339417,462.619232 538.394104,461.107269 
	C533.190613,452.784393 528.052429,444.420319 522.798584,436.129486 
	C518.111694,428.733368 513.191528,428.860352 508.488861,436.375122 
	C502.929016,445.259796 497.361908,454.139984 491.765259,463.001434 
	C491.134460,464.000214 490.291901,464.865204 489.061462,466.397552 
	C486.093048,450.157867 483.288208,434.813019 480.448425,419.276978 
	C475.999573,419.276978 471.781769,419.276978 467.281067,419.276978 
	C467.383453,420.755768 467.356628,421.894012 467.553925,422.992035 
	C471.292816,443.799744 475.095856,464.596008 478.782990,485.412811 
	C479.436798,489.104218 480.480591,492.332581 484.692535,493.001404 
	C488.870331,493.664825 490.940155,490.908051 492.850525,487.729095 
	C499.536163,476.603699 506.335327,465.546387 513.124146,454.483368 
	C513.849609,453.301178 514.790100,452.250885 515.993835,450.659393 
	C523.785889,463.408417 531.266968,475.544067 538.622925,487.755035 
	C540.543640,490.943542 542.646057,493.704468 546.798584,492.977844 
	C551.197693,492.208099 552.220825,488.688904 552.884827,484.872864 
	C555.024231,472.577087 557.293396,460.303894 559.476501,448.015594 
	C561.156128,438.561096 562.781616,429.096985 564.494385,419.274658 
	C562.693726,419.143555 561.414551,419.050415 559.256775,418.959595 
M384.288177,474.497620 
	C384.288177,480.265503 384.288177,486.033417 384.288177,491.952148 
	C389.056854,491.952148 393.130890,491.952148 397.854126,491.952148 
	C397.854126,471.991730 397.854126,452.299042 397.854126,432.226898 
	C412.628784,432.226898 426.756500,432.175049 440.882019,432.328522 
	C441.974121,432.340363 443.733459,433.595490 444.030426,434.610077 
	C447.714111,447.194122 441.843109,454.955811 428.835907,454.954681 
	C420.393951,454.953949 411.951996,454.954498 403.211090,454.954498 
	C403.211090,459.640839 403.211090,463.705902 403.211090,468.389893 
	C410.655701,466.625153 415.609558,470.456421 420.433319,475.092010 
	C424.864594,479.350372 430.220306,482.717468 434.295227,487.260712 
	C441.704803,495.521759 450.685516,490.973236 459.143188,491.625122 
	C455.248352,487.392181 451.113312,483.853058 447.005463,480.282623 
	C442.817810,476.642853 438.656921,472.972260 434.183960,469.051941 
	C435.240479,468.490021 435.619354,468.175507 436.047913,468.076874 
	C451.641327,464.488312 457.616760,457.045105 457.666077,441.113403 
	C457.671753,439.281403 457.714783,437.447937 457.659790,435.617615 
	C457.345337,425.153931 451.118408,419.018341 440.588593,418.975372 
	C424.933411,418.911499 409.277802,418.939056 393.622406,418.966400 
	C386.045258,418.979614 384.319580,420.753632 384.304352,428.530975 
	C384.274963,443.520142 384.290985,458.509399 384.288177,474.497620 
M239.586502,448.411377 
	C234.800140,446.905090 233.760300,443.157318 234.432663,438.894653 
	C235.160919,434.277496 238.295944,432.189545 242.952484,432.203430 
	C254.947113,432.239258 266.941925,432.215729 278.936676,432.215881 
	C281.683197,432.215942 284.429718,432.215881 287.118073,432.215881 
	C287.118073,427.393158 287.118073,423.339233 287.118073,418.971100 
	C272.208710,418.971100 257.732208,418.880524 243.257401,418.997192 
	C229.481537,419.108215 220.814255,427.787323 220.947418,441.064331 
	C221.076141,453.896027 229.906235,462.205231 243.583328,462.283051 
	C252.579086,462.334259 261.575409,462.274841 270.571442,462.294830 
	C277.430511,462.310059 280.681427,464.919861 280.807800,470.441498 
	C280.939972,476.215454 277.733948,478.864777 270.453033,478.901062 
	C263.289703,478.936768 256.126038,478.908600 248.962509,478.908539 
	C240.001846,478.908447 231.041183,478.908478 221.776367,478.908478 
	C221.776367,483.489746 221.776367,487.571777 221.776367,491.804749 
	C240.280441,491.804749 258.565277,492.241638 276.811279,491.589966 
	C284.125549,491.328766 289.736389,486.593994 292.520416,479.390686 
	C298.560089,463.763824 288.677979,449.157562 271.866974,448.912781 
	C261.377502,448.759979 250.886047,448.741028 239.586502,448.411377 
M669.796936,455.725250 
	C665.062012,451.017792 659.355835,448.832611 652.682190,448.887543 
	C643.524170,448.962982 634.364746,448.930267 625.206299,448.883484 
	C618.330505,448.848389 615.459229,446.256012 615.567383,440.334229 
	C615.669312,434.753906 618.583801,432.242615 625.185486,432.224426 
	C638.174316,432.188629 651.163330,432.224579 664.152222,432.201904 
	C665.573914,432.199432 666.995239,432.007751 668.392212,431.905609 
	C668.392212,427.409393 668.392212,423.347321 668.392212,419.113129 
	C652.360229,419.113129 636.696228,418.578033 621.108704,419.435425 
	C616.359314,419.696655 610.908203,422.864349 607.381287,426.331482 
	C600.646423,432.952179 600.514221,441.735840 603.993591,450.054626 
	C607.487427,458.407959 614.622009,462.149597 623.545837,462.261902 
	C633.369202,462.385559 643.195374,462.321564 653.020081,462.281952 
	C657.327454,462.264587 660.511292,463.847961 661.668579,468.231018 
	C663.253479,474.233154 659.816162,478.768951 653.373779,478.836609 
	C639.720337,478.980072 626.064453,478.901855 612.409607,478.913330 
	C609.305603,478.915924 606.201599,478.913666 602.968994,478.913666 
	C602.968994,483.671814 602.968994,487.751556 602.968994,492.193939 
	C619.914612,492.193939 636.537781,492.228333 653.160583,492.179779 
	C661.775391,492.154602 669.037537,489.061157 672.899353,481.071716 
	C677.039978,472.505493 676.478210,463.972748 669.796936,455.725250 
M266.882263,345.613251 
	C266.860718,350.580322 266.524475,355.572815 266.923645,360.505859 
	C267.209442,364.038361 269.301483,365.196716 272.291077,362.420624 
	C274.607849,360.269318 276.858215,358.046417 279.177185,355.897552 
	C289.621002,346.219910 286.272949,344.389313 298.656281,357.051544 
	C300.864594,359.309601 300.790100,361.197662 298.562531,363.421051 
	C294.323151,367.652527 290.240417,372.041138 286.097992,376.369598 
	C283.533417,379.049316 284.268829,380.889343 287.704865,381.527069 
	C295.034882,382.887482 302.247192,382.997528 309.048248,379.114838 
	C321.471008,372.022644 326.972046,358.611877 322.862732,344.508881 
	C322.005341,341.566345 322.407745,339.634857 324.633453,337.502686 
	C330.278534,332.094940 335.765381,326.512482 341.096008,320.795288 
	C342.011414,319.813477 342.657471,317.144073 342.044586,316.411377 
	C338.566498,312.253387 334.667877,308.447205 330.417542,304.003967 
	C323.708191,310.887329 317.375153,317.224091 311.251404,323.757080 
	C309.193939,325.952057 307.414551,326.595337 304.324219,325.762939 
	C287.410248,321.207031 273.683411,328.381561 266.882263,345.613251 
M390.615814,271.774353 
	C393.147919,271.966888 395.744720,271.862671 398.201996,272.398438 
	C419.529358,277.048645 438.181030,258.120544 432.970367,236.980469 
	C432.641724,235.647202 431.806854,234.438721 430.900085,232.522552 
	C428.456207,234.544693 426.490875,236.006073 424.718475,237.672623 
	C421.324554,240.863892 418.197327,244.361069 414.623260,247.326111 
	C413.412262,248.330780 410.675629,248.995178 409.504913,248.316498 
	C398.522095,241.949783 397.984802,237.113220 406.864197,228.267838 
	C409.102386,226.038208 411.322632,223.782990 413.419250,221.422379 
	C414.337463,220.388474 414.924438,219.060364 415.899902,217.480194 
	C414.083282,216.768936 412.913696,216.171616 411.672852,215.845932 
	C390.150299,210.196915 370.832855,229.988403 376.725311,251.930145 
	C377.799591,255.930435 377.130096,258.325775 374.219025,260.986664 
	C368.119049,266.562378 362.300415,272.445892 355.982483,278.575348 
	C360.219360,282.548370 363.923828,285.852600 367.420197,289.364044 
	C369.532593,291.485535 370.997955,291.463806 373.130005,289.238647 
	C378.654510,283.472839 384.438080,277.955261 390.615814,271.774353 
M342.500000,418.970551 
	C333.002441,418.970062 323.504791,418.949310 314.007324,418.975769 
	C306.944458,418.995453 304.934143,420.905334 304.917175,427.746765 
	C304.879974,442.742798 304.844360,457.739380 304.928650,472.735016 
	C304.997620,485.003662 312.250610,492.114563 324.680878,492.175110 
	C338.010437,492.240051 351.340546,492.196167 364.670410,492.199585 
	C366.784424,492.200134 368.898438,492.199646 371.169128,492.199646 
	C371.169128,487.554840 371.169128,483.464355 371.169128,478.917847 
	C369.255371,478.917847 367.619232,478.918182 365.983124,478.917786 
	C352.653259,478.914520 339.323273,478.936768 325.993530,478.896820 
	C319.373108,478.876984 318.250427,477.694824 318.232117,470.953064 
	C318.210876,463.121765 318.227417,455.290436 318.227509,447.459106 
	C318.227539,442.519409 318.227509,437.579742 318.227509,432.163940 
	C336.276062,432.163940 353.681915,432.163940 371.216553,432.163940 
	C371.216553,427.583984 371.216553,423.496521 371.216553,418.970551 
	C361.759094,418.970551 352.629547,418.970551 342.500000,418.970551 
M576.005676,482.460144 
	C576.005676,485.563263 576.005676,488.666351 576.005676,491.916016 
	C580.770020,491.916016 584.849976,491.916016 589.091919,491.916016 
	C589.091919,467.549316 589.091919,443.479248 589.091919,419.297211 
	C584.687805,419.297211 580.622864,419.297211 576.005554,419.297211 
	C576.005554,440.255463 576.005554,460.864014 576.005676,482.460144 
M78.793030,432.253540 
	C84.192154,432.253540 89.591286,432.253540 94.862511,432.253540 
	C94.862511,427.541351 94.862511,423.440430 94.862511,419.247986 
	C70.890549,419.247986 47.217304,419.247986 23.283218,419.247986 
	C23.283218,423.675934 23.283218,427.750061 23.283218,432.519562 
	C33.004375,432.519562 42.514191,432.519562 52.371201,432.519562 
	C52.371201,435.020996 52.371300,436.830688 52.371185,438.640381 
	C52.370148,455.113373 52.304913,471.587067 52.480003,488.058197 
	C52.495342,489.501465 53.925964,492.008087 54.976089,492.164795 
	C58.473900,492.686554 62.097931,492.362244 66.101624,492.362244 
	C66.101624,471.973541 66.101624,452.399597 66.101624,432.254089 
	C70.304291,432.254089 74.087128,432.254089 78.793030,432.253540 
M340.558716,462.298645 
	C348.676056,462.298645 356.793396,462.298645 365.187134,462.298645 
	C365.187134,457.623047 365.187134,453.412079 365.187134,449.076111 
	C351.223175,449.076111 337.622101,449.076111 323.792480,449.076111 
	C323.792480,453.486328 323.792480,457.684875 323.792480,462.298584 
	C329.306549,462.298584 334.443909,462.298584 340.558716,462.298645 
M168.813507,424.782928 
	C165.174881,420.605896 160.536438,418.892670 155.056717,418.916382 
	C141.059982,418.976990 127.062630,418.891144 113.065842,418.944885 
	C106.965515,418.968323 104.876938,421.006622 104.859299,427.021118 
	C104.803596,446.016937 104.801201,465.013092 104.856110,484.008911 
	C104.873718,490.103180 106.914917,492.177246 112.914482,492.203094 
	C129.244049,492.273468 145.574875,492.343903 161.903534,492.210754 
	C171.646072,492.131317 177.626328,486.007477 178.132553,476.279694 
	C178.632477,466.673309 175.647995,458.605103 167.756622,452.813446 
	C172.344330,443.615570 174.573471,434.665070 168.813507,424.782928 
z"/>
<path fill="#000000" opacity="1.000000" stroke="none" 
	d="
M705.000000,167.536118 
	C470.642578,167.998886 236.285172,167.997772 1.463881,167.998337 
	C1.000000,112.356293 1.000000,56.712582 1.000000,1.034436 
	C235.546936,1.034436 470.093872,1.034436 705.000000,1.034436 
	C705.000000,56.356895 705.000000,111.714561 705.000000,167.536118 
z"/>
<path fill="#000000" opacity="1.000000" stroke="none" 
	d="
M1.000000,542.465027 
	C235.356644,542.000610 469.713287,542.001282 704.534973,542.000977 
	C705.000000,596.310608 705.000000,650.621277 705.000000,704.965942 
	C470.454102,704.965942 235.908173,704.965942 1.000000,704.965942 
	C1.000000,650.977234 1.000000,596.953613 1.000000,542.465027 
z"/>
<path fill="#0E33B2" opacity="1.000000" stroke="none" 
	d="
M316.890717,253.948883 
	C316.971588,254.383453 317.052460,254.818008 316.958374,255.735352 
	C318.409119,260.740631 321.466034,263.707703 326.184845,264.868622 
	C326.184845,264.868622 326.074280,264.927216 326.064697,265.249817 
	C328.975708,269.010223 331.512390,272.899445 334.903503,275.784180 
	C340.525818,280.566986 347.087402,284.272034 352.553375,289.206421 
	C362.476227,298.164276 371.875824,307.701080 381.510986,316.978363 
	C390.084137,325.233063 398.675262,333.469116 407.268494,341.702942 
	C414.522583,348.653625 421.751099,355.631866 429.072876,362.510651 
	C432.012634,365.272522 430.564362,367.963074 428.543671,369.788391 
	C424.766510,373.200287 422.776611,379.668610 415.838959,378.162201 
	C414.867157,377.951172 414.088654,376.680511 413.299438,375.827484 
	C409.921814,372.176636 406.683014,368.390808 403.194824,364.850037 
	C391.739380,353.222198 379.391327,342.359039 368.907532,329.919861 
	C357.664062,316.579254 344.093201,305.449188 334.361664,290.546417 
	C328.137482,281.014801 318.364075,273.773895 309.976227,265.720215 
	C309.052551,264.833344 306.772919,265.358704 305.122192,265.229065 
	C305.122192,265.229065 305.082397,265.120117 304.732544,265.094788 
	C302.010101,265.719452 299.670044,266.726501 297.258179,266.946716 
	C291.904175,267.435516 288.822418,270.770111 288.312988,275.422333 
	C287.802094,280.088287 285.749451,283.671875 281.795227,284.162567 
	C279.385284,284.461578 276.035889,281.472107 273.972900,279.181274 
	C271.491974,276.426361 267.113556,273.265350 271.787872,268.932037 
	C273.244904,267.581268 275.771790,267.444550 277.415955,266.223083 
	C280.729553,263.761414 284.201477,261.292084 286.803162,258.157715 
	C289.201904,255.267899 289.937622,250.928726 292.476135,248.237488 
	C298.728729,241.608734 305.629303,235.594360 312.208160,229.269302 
	C320.115997,221.666519 329.756042,218.785721 340.650055,218.777512 
	C339.957977,220.111084 339.000153,221.048325 337.958496,221.880676 
	C334.261139,224.835114 330.676849,227.959015 326.790192,230.642822 
	C318.914520,236.081161 319.406219,245.660477 315.431488,253.011948 
	C315.410889,253.050125 316.382477,253.624771 316.890717,253.948883 
z"/>
<path fill="#0B0B0B" opacity="1.000000" stroke="none" 
	d="
M559.696106,418.958435 
	C561.414551,419.050415 562.693726,419.143555 564.494385,419.274658 
	C562.781616,429.096985 561.156128,438.561096 559.476501,448.015594 
	C557.293396,460.303894 555.024231,472.577087 552.884827,484.872864 
	C552.220825,488.688904 551.197693,492.208099 546.798584,492.977844 
	C542.646057,493.704468 540.543640,490.943542 538.622925,487.755035 
	C531.266968,475.544067 523.785889,463.408417 515.993835,450.659393 
	C514.790100,452.250885 513.849609,453.301178 513.124146,454.483368 
	C506.335327,465.546387 499.536163,476.603699 492.850525,487.729095 
	C490.940155,490.908051 488.870331,493.664825 484.692535,493.001404 
	C480.480591,492.332581 479.436798,489.104218 478.782990,485.412811 
	C475.095856,464.596008 471.292816,443.799744 467.553925,422.992035 
	C467.356628,421.894012 467.383453,420.755768 467.281067,419.276978 
	C471.781769,419.276978 475.999573,419.276978 480.448425,419.276978 
	C483.288208,434.813019 486.093048,450.157867 489.061462,466.397552 
	C490.291901,464.865204 491.134460,464.000214 491.765259,463.001434 
	C497.361908,454.139984 502.929016,445.259796 508.488861,436.375122 
	C513.191528,428.860352 518.111694,428.733368 522.798584,436.129486 
	C528.052429,444.420319 533.190613,452.784393 538.394104,461.107269 
	C539.339417,462.619232 540.356689,464.086151 542.238525,466.931152 
	C545.336121,450.150238 548.176392,434.763306 551.093628,418.959595 
	C553.988281,418.959595 556.622498,418.959595 559.696106,418.958435 
z"/>
<path fill="#0C0C0C" opacity="1.000000" stroke="none" 
	d="
M384.288177,473.998108 
	C384.290985,458.509399 384.274963,443.520142 384.304352,428.530975 
	C384.319580,420.753632 386.045258,418.979614 393.622406,418.966400 
	C409.277802,418.939056 424.933411,418.911499 440.588593,418.975372 
	C451.118408,419.018341 457.345337,425.153931 457.659790,435.617615 
	C457.714783,437.447937 457.671753,439.281403 457.666077,441.113403 
	C457.616760,457.045105 451.641327,464.488312 436.047913,468.076874 
	C435.619354,468.175507 435.240479,468.490021 434.183960,469.051941 
	C438.656921,472.972260 442.817810,476.642853 447.005463,480.282623 
	C451.113312,483.853058 455.248352,487.392181 459.143188,491.625122 
	C450.685516,490.973236 441.704803,495.521759 434.295227,487.260712 
	C430.220306,482.717468 424.864594,479.350372 420.433319,475.092010 
	C415.609558,470.456421 410.655701,466.625153 403.211090,468.389893 
	C403.211090,463.705902 403.211090,459.640839 403.211090,454.954498 
	C411.951996,454.954498 420.393951,454.953949 428.835907,454.954681 
	C441.843109,454.955811 447.714111,447.194122 444.030426,434.610077 
	C443.733459,433.595490 441.974121,432.340363 440.882019,432.328522 
	C426.756500,432.175049 412.628784,432.226898 397.854126,432.226898 
	C397.854126,452.299042 397.854126,471.991730 397.854126,491.952148 
	C393.130890,491.952148 389.056854,491.952148 384.288177,491.952148 
	C384.288177,486.033417 384.288177,480.265503 384.288177,473.998108 
z"/>
<path fill="#090909" opacity="1.000000" stroke="none" 
	d="
M239.990997,448.536682 
	C250.886047,448.741028 261.377502,448.759979 271.866974,448.912781 
	C288.677979,449.157562 298.560089,463.763824 292.520416,479.390686 
	C289.736389,486.593994 284.125549,491.328766 276.811279,491.589966 
	C258.565277,492.241638 240.280441,491.804749 221.776367,491.804749 
	C221.776367,487.571777 221.776367,483.489746 221.776367,478.908478 
	C231.041183,478.908478 240.001846,478.908447 248.962509,478.908539 
	C256.126038,478.908600 263.289703,478.936768 270.453033,478.901062 
	C277.733948,478.864777 280.939972,476.215454 280.807800,470.441498 
	C280.681427,464.919861 277.430511,462.310059 270.571442,462.294830 
	C261.575409,462.274841 252.579086,462.334259 243.583328,462.283051 
	C229.906235,462.205231 221.076141,453.896027 220.947418,441.064331 
	C220.814255,427.787323 229.481537,419.108215 243.257401,418.997192 
	C257.732208,418.880524 272.208710,418.971100 287.118073,418.971100 
	C287.118073,423.339233 287.118073,427.393158 287.118073,432.215881 
	C284.429718,432.215881 281.683197,432.215942 278.936676,432.215881 
	C266.941925,432.215729 254.947113,432.239258 242.952484,432.203430 
	C238.295944,432.189545 235.160919,434.277496 234.432663,438.894653 
	C233.760300,443.157318 234.800140,446.905090 239.990997,448.536682 
z"/>
<path fill="#090909" opacity="1.000000" stroke="none" 
	d="
M670.036499,455.997345 
	C676.478210,463.972748 677.039978,472.505493 672.899353,481.071716 
	C669.037537,489.061157 661.775391,492.154602 653.160583,492.179779 
	C636.537781,492.228333 619.914612,492.193939 602.968994,492.193939 
	C602.968994,487.751556 602.968994,483.671814 602.968994,478.913666 
	C606.201599,478.913666 609.305603,478.915924 612.409607,478.913330 
	C626.064453,478.901855 639.720337,478.980072 653.373779,478.836609 
	C659.816162,478.768951 663.253479,474.233154 661.668579,468.231018 
	C660.511292,463.847961 657.327454,462.264587 653.020081,462.281952 
	C643.195374,462.321564 633.369202,462.385559 623.545837,462.261902 
	C614.622009,462.149597 607.487427,458.407959 603.993591,450.054626 
	C600.514221,441.735840 600.646423,432.952179 607.381287,426.331482 
	C610.908203,422.864349 616.359314,419.696655 621.108704,419.435425 
	C636.696228,418.578033 652.360229,419.113129 668.392212,419.113129 
	C668.392212,423.347321 668.392212,427.409393 668.392212,431.905609 
	C666.995239,432.007751 665.573914,432.199432 664.152222,432.201904 
	C651.163330,432.224579 638.174316,432.188629 625.185486,432.224426 
	C618.583801,432.242615 615.669312,434.753906 615.567383,440.334229 
	C615.459229,446.256012 618.330505,448.848389 625.206299,448.883484 
	C634.364746,448.930267 643.524170,448.962982 652.682190,448.887543 
	C659.355835,448.832611 665.062012,451.017792 670.036499,455.997345 
z"/>
<path fill="#080808" opacity="1.000000" stroke="none" 
	d="
M267.022888,345.230347 
	C273.683411,328.381561 287.410248,321.207031 304.324219,325.762939 
	C307.414551,326.595337 309.193939,325.952057 311.251404,323.757080 
	C317.375153,317.224091 323.708191,310.887329 330.417542,304.003967 
	C334.667877,308.447205 338.566498,312.253387 342.044586,316.411377 
	C342.657471,317.144073 342.011414,319.813477 341.096008,320.795288 
	C335.765381,326.512482 330.278534,332.094940 324.633453,337.502686 
	C322.407745,339.634857 322.005341,341.566345 322.862732,344.508881 
	C326.972046,358.611877 321.471008,372.022644 309.048248,379.114838 
	C302.247192,382.997528 295.034882,382.887482 287.704865,381.527069 
	C284.268829,380.889343 283.533417,379.049316 286.097992,376.369598 
	C290.240417,372.041138 294.323151,367.652527 298.562531,363.421051 
	C300.790100,361.197662 300.864594,359.309601 298.656281,357.051544 
	C286.272949,344.389313 289.621002,346.219910 279.177185,355.897552 
	C276.858215,358.046417 274.607849,360.269318 272.291077,362.420624 
	C269.301483,365.196716 267.209442,364.038361 266.923645,360.505859 
	C266.524475,355.572815 266.860718,350.580322 267.022888,345.230347 
z"/>
<path fill="#070707" opacity="1.000000" stroke="none" 
	d="
M390.367004,272.056458 
	C384.438080,277.955261 378.654510,283.472839 373.130005,289.238647 
	C370.997955,291.463806 369.532593,291.485535 367.420197,289.364044 
	C363.923828,285.852600 360.219360,282.548370 355.982483,278.575348 
	C362.300415,272.445892 368.119049,266.562378 374.219025,260.986664 
	C377.130096,258.325775 377.799591,255.930435 376.725311,251.930145 
	C370.832855,229.988403 390.150299,210.196915 411.672852,215.845932 
	C412.913696,216.171616 414.083282,216.768936 415.899902,217.480194 
	C414.924438,219.060364 414.337463,220.388474 413.419250,221.422379 
	C411.322632,223.782990 409.102386,226.038208 406.864197,228.267838 
	C397.984802,237.113220 398.522095,241.949783 409.504913,248.316498 
	C410.675629,248.995178 413.412262,248.330780 414.623260,247.326111 
	C418.197327,244.361069 421.324554,240.863892 424.718475,237.672623 
	C426.490875,236.006073 428.456207,234.544693 430.900085,232.522552 
	C431.806854,234.438721 432.641724,235.647202 432.970367,236.980469 
	C438.181030,258.120544 419.529358,277.048645 398.201996,272.398438 
	C395.744720,271.862671 393.147919,271.966888 390.367004,272.056458 
z"/>
<path fill="#080808" opacity="1.000000" stroke="none" 
	d="
M343.000000,418.970551 
	C352.629547,418.970551 361.759094,418.970551 371.216553,418.970551 
	C371.216553,423.496521 371.216553,427.583984 371.216553,432.163940 
	C353.681915,432.163940 336.276062,432.163940 318.227509,432.163940 
	C318.227509,437.579742 318.227539,442.519409 318.227509,447.459106 
	C318.227417,455.290436 318.210876,463.121765 318.232117,470.953064 
	C318.250427,477.694824 319.373108,478.876984 325.993530,478.896820 
	C339.323273,478.936768 352.653259,478.914520 365.983124,478.917786 
	C367.619232,478.918182 369.255371,478.917847 371.169128,478.917847 
	C371.169128,483.464355 371.169128,487.554840 371.169128,492.199646 
	C368.898438,492.199646 366.784424,492.200134 364.670410,492.199585 
	C351.340546,492.196167 338.010437,492.240051 324.680878,492.175110 
	C312.250610,492.114563 304.997620,485.003662 304.928650,472.735016 
	C304.844360,457.739380 304.879974,442.742798 304.917175,427.746765 
	C304.934143,420.905334 306.944458,418.995453 314.007324,418.975769 
	C323.504791,418.949310 333.002441,418.970062 343.000000,418.970551 
z"/>
<path fill="#090909" opacity="1.000000" stroke="none" 
	d="
M576.005615,481.966339 
	C576.005554,460.864014 576.005554,440.255463 576.005554,419.297211 
	C580.622864,419.297211 584.687805,419.297211 589.091919,419.297211 
	C589.091919,443.479248 589.091919,467.549316 589.091919,491.916016 
	C584.849976,491.916016 580.770020,491.916016 576.005676,491.916016 
	C576.005676,488.666351 576.005676,485.563263 576.005615,481.966339 
z"/>
<path fill="#2D469B" opacity="1.000000" stroke="none" 
	d="
M305.452087,265.261414 
	C306.772919,265.358704 309.052551,264.833344 309.976227,265.720215 
	C318.364075,273.773895 328.137482,281.014801 334.361664,290.546417 
	C344.093201,305.449188 357.664062,316.579254 368.907532,329.919861 
	C379.391327,342.359039 391.739380,353.222198 403.194824,364.850037 
	C406.683014,368.390808 409.921814,372.176636 413.299438,375.827484 
	C414.088654,376.680511 414.867157,377.951172 415.838959,378.162201 
	C422.776611,379.668610 424.766510,373.200287 428.543671,369.788391 
	C430.564362,367.963074 432.012634,365.272522 429.072876,362.510651 
	C421.751099,355.631866 414.522583,348.653625 407.268494,341.702942 
	C398.675262,333.469116 390.084137,325.233063 381.510986,316.978363 
	C371.875824,307.701080 362.476227,298.164276 352.553375,289.206421 
	C347.087402,284.272034 340.525818,280.566986 334.903503,275.784180 
	C331.512390,272.899445 328.975708,269.010223 326.094116,265.194580 
	C330.625000,268.947174 334.959778,273.266235 339.643707,277.165955 
	C347.701141,283.874420 356.420288,289.844269 364.075745,296.968658 
	C386.199829,317.557922 407.957855,338.541229 429.801056,359.431030 
	C435.350281,364.738037 435.292206,366.760712 430.000916,372.179718 
	C427.676300,374.560394 425.371582,376.972778 422.898804,379.193726 
	C418.677795,382.984863 416.709595,383.014038 412.769714,378.922058 
	C392.817719,358.199890 372.943420,337.402863 353.045898,316.628204 
	C350.516235,313.987000 347.874084,311.438110 345.518250,308.648651 
	C338.084930,299.847015 331.019989,290.719482 323.310333,282.170990 
	C317.891663,276.162750 311.653931,270.893158 305.452087,265.261414 
z"/>
<path fill="#304999" opacity="1.000000" stroke="none" 
	d="
M78.331497,432.253815 
	C74.087128,432.254089 70.304291,432.254089 66.101624,432.254089 
	C66.101624,452.399597 66.101624,471.973541 66.101624,492.362244 
	C62.097931,492.362244 58.473900,492.686554 54.976089,492.164795 
	C53.925964,492.008087 52.495342,489.501465 52.480003,488.058197 
	C52.304913,471.587067 52.370148,455.113373 52.371185,438.640381 
	C52.371300,436.830688 52.371201,435.020996 52.371201,432.519562 
	C42.514191,432.519562 33.004375,432.519562 23.283218,432.519562 
	C23.283218,427.750061 23.283218,423.675934 23.283218,419.247986 
	C47.217304,419.247986 70.890549,419.247986 94.862511,419.247986 
	C94.862511,423.440430 94.862511,427.541351 94.862511,432.253540 
	C89.591286,432.253540 84.192154,432.253540 78.331497,432.253815 
M27.073975,429.861786 
	C34.057365,429.920502 41.044060,429.867035 48.023132,430.072449 
	C53.919781,430.245941 54.956837,431.432220 54.960785,437.191528 
	C54.971844,453.327789 55.057941,469.465027 54.894913,485.599609 
	C54.858852,489.168396 56.086311,490.131500 59.504139,490.118286 
	C63.551628,490.102600 64.068222,487.992737 64.051064,484.712891 
	C63.969257,469.076111 64.003029,453.438599 64.023735,437.801422 
	C64.032341,431.302094 65.325493,430.055664 71.973625,430.030609 
	C76.964134,430.011810 81.961716,429.874542 86.943138,430.090240 
	C90.705666,430.253204 93.036636,429.373749 93.063255,425.032562 
	C93.090240,420.631470 90.169647,420.970062 87.266075,420.971680 
	C68.468147,420.982086 49.670204,420.959991 30.872299,420.979431 
	C24.637094,420.985870 23.383913,423.345428 27.073975,429.861786 
z"/>
<path fill="#0A0A0A" opacity="1.000000" stroke="none" 
	d="
M340.070007,462.298615 
	C334.443909,462.298584 329.306549,462.298584 323.792480,462.298584 
	C323.792480,457.684875 323.792480,453.486328 323.792480,449.076111 
	C337.622101,449.076111 351.223175,449.076111 365.187134,449.076111 
	C365.187134,453.412079 365.187134,457.623047 365.187134,462.298645 
	C356.793396,462.298645 348.676056,462.298645 340.070007,462.298615 
z"/>
<path fill="#29439A" opacity="1.000000" stroke="none" 
	d="
M169.047028,425.075684 
	C174.573471,434.665070 172.344330,443.615570 167.756622,452.813446 
	C175.647995,458.605103 178.632477,466.673309 178.132553,476.279694 
	C177.626328,486.007477 171.646072,492.131317 161.903534,492.210754 
	C145.574875,492.343903 129.244049,492.273468 112.914482,492.203094 
	C106.914917,492.177246 104.873718,490.103180 104.856110,484.008911 
	C104.801201,465.013092 104.803596,446.016937 104.859299,427.021118 
	C104.876938,421.006622 106.965515,418.968323 113.065842,418.944885 
	C127.062630,418.891144 141.059982,418.976990 155.056717,418.916382 
	C160.536438,418.892670 165.174881,420.605896 169.047028,425.075684 
M156.424088,490.018311 
	C161.143753,488.993134 166.751953,489.232056 170.393188,486.672638 
	C177.402618,481.745789 178.758057,468.694366 172.467178,461.684723 
	C166.533829,455.073486 166.783325,449.563202 169.272400,441.717010 
	C172.729904,430.818176 167.463364,422.148590 157.341537,421.300934 
	C142.964676,420.096863 128.411133,420.916656 113.934517,421.040192 
	C109.348404,421.079346 107.007935,423.687897 107.000313,428.205688 
	C106.969734,446.344360 106.966293,464.483185 106.993530,482.621857 
	C107.001930,488.218903 108.824059,489.999725 114.507652,490.011505 
	C128.153244,490.039856 141.798950,490.019196 156.424088,490.018311 
z"/>
<path fill="#2D469B" opacity="1.000000" stroke="none" 
	d="
M317.160858,253.754547 
	C316.382477,253.624771 315.410889,253.050125 315.431488,253.011948 
	C319.406219,245.660477 318.914520,236.081161 326.790192,230.642822 
	C330.676849,227.959015 334.261139,224.835114 337.958496,221.880676 
	C339.000153,221.048325 339.957977,220.111084 340.650055,218.777512 
	C329.756042,218.785721 320.115997,221.666519 312.208160,229.269302 
	C305.629303,235.594360 298.728729,241.608734 292.476135,248.237488 
	C289.937622,250.928726 289.201904,255.267899 286.803162,258.157715 
	C284.201477,261.292084 280.729553,263.761414 277.415955,266.223083 
	C275.771790,267.444550 273.244904,267.581268 271.787872,268.932037 
	C267.113556,273.265350 271.491974,276.426361 273.972900,279.181274 
	C276.035889,281.472107 279.385284,284.461578 281.795227,284.162567 
	C285.749451,283.671875 287.802094,280.088287 288.312988,275.422333 
	C288.822418,270.770111 291.904175,267.435516 297.258179,266.946716 
	C299.670044,266.726501 302.010101,265.719452 304.784424,265.120758 
	C303.410309,267.961670 301.473572,269.898529 297.546967,269.236694 
	C294.282135,268.686401 290.120850,273.503723 290.074951,277.058777 
	C290.029236,280.603088 285.666351,286.849152 282.367889,287.509399 
	C281.140320,287.755096 279.321014,287.211304 278.383392,286.356445 
	C274.700012,282.998138 271.243591,279.389038 267.736786,275.839539 
	C265.764496,273.843262 265.555756,271.705597 267.765533,269.786346 
	C270.744354,267.199188 272.569702,262.939880 277.944794,263.921753 
	C280.530945,264.394165 284.579010,258.750397 284.776917,255.913544 
	C284.880585,254.427216 285.255280,252.566040 286.227631,251.595703 
	C294.813995,243.027161 303.218018,234.225739 312.352295,226.269592 
	C322.980621,217.012039 335.855072,214.367325 349.699554,216.153320 
	C350.127319,216.208511 350.511322,216.602478 351.455200,217.153351 
	C346.999420,219.595825 342.550323,221.376923 338.897369,224.191345 
	C333.434662,228.400146 328.383087,233.184341 323.456177,238.028473 
	C321.108917,240.336288 319.752197,243.092682 320.840393,247.035126 
	C321.317810,248.764694 318.663361,251.358719 317.160858,253.754547 
z"/>
<path fill="#2D469B" opacity="1.000000" stroke="none" 
	d="
M326.134155,264.528900 
	C321.466034,263.707703 318.409119,260.740631 317.027954,256.059784 
	C320.209473,258.664062 323.146454,261.426605 326.134155,264.528900 
z"/>
<path fill="#0F32B0" opacity="1.000000" stroke="none" 
	d="
M26.670212,429.676117 
	C23.383913,423.345428 24.637094,420.985870 30.872299,420.979431 
	C49.670204,420.959991 68.468147,420.982086 87.266075,420.971680 
	C90.169647,420.970062 93.090240,420.631470 93.063255,425.032562 
	C93.036636,429.373749 90.705666,430.253204 86.943138,430.090240 
	C81.961716,429.874542 76.964134,430.011810 71.973625,430.030609 
	C65.325493,430.055664 64.032341,431.302094 64.023735,437.801422 
	C64.003029,453.438599 63.969257,469.076111 64.051064,484.712891 
	C64.068222,487.992737 63.551628,490.102600 59.504139,490.118286 
	C56.086311,490.131500 54.858852,489.168396 54.894913,485.599609 
	C55.057941,469.465027 54.971844,453.327789 54.960785,437.191528 
	C54.956837,431.432220 53.919781,430.245941 48.023132,430.072449 
	C41.044060,429.867035 34.057365,429.920502 26.670212,429.676117 
z"/>
<path fill="#0F32B0" opacity="1.000000" stroke="none" 
	d="
M155.934357,490.018311 
	C141.798950,490.019196 128.153244,490.039856 114.507652,490.011505 
	C108.824059,489.999725 107.001930,488.218903 106.993530,482.621857 
	C106.966293,464.483185 106.969734,446.344360 107.000313,428.205688 
	C107.007935,423.687897 109.348404,421.079346 113.934517,421.040192 
	C128.411133,420.916656 142.964676,420.096863 157.341537,421.300934 
	C167.463364,422.148590 172.729904,430.818176 169.272400,441.717010 
	C166.783325,449.563202 166.533829,455.073486 172.467178,461.684723 
	C178.758057,468.694366 177.402618,481.745789 170.393188,486.672638 
	C166.751953,489.232056 161.143753,488.993134 155.934357,490.018311 
M161.793304,464.418854 
	C161.602600,464.204590 161.378647,464.033844 160.930435,463.205292 
	C158.321075,462.138062 155.746811,460.266052 153.095978,460.150513 
	C144.213623,459.763367 135.303940,460.003571 126.543488,460.003571 
	C125.411064,451.860687 126.076294,451.068573 133.445023,451.008240 
	C138.096863,450.970154 142.848221,451.582214 147.370483,450.815186 
	C151.073914,450.187042 155.118912,448.662537 157.905762,446.254517 
	C161.648590,443.020538 162.267578,437.568726 160.225830,433.470551 
	C159.178192,431.367767 154.484589,430.294800 151.375183,430.153534 
	C142.090012,429.731628 132.772614,429.932587 123.469810,430.049896 
	C121.364243,430.076416 119.255463,430.702026 117.184303,431.201691 
	C116.990341,431.248505 117.057594,432.378052 116.974899,433.917786 
	C116.953506,437.263123 116.932106,440.608429 116.185936,444.153656 
	C114.488846,446.655396 113.832664,449.048004 116.932869,451.891144 
	C116.922577,453.575623 116.912292,455.260132 116.237656,457.110809 
	C114.430183,458.769775 114.364075,460.132782 116.932983,461.894562 
	C116.923927,463.580170 116.914879,465.265778 116.265915,467.088928 
	C116.478859,468.076355 116.691795,469.063782 116.927872,470.777618 
	C116.916008,471.502747 116.904152,472.227875 116.377632,473.515930 
	C115.819214,480.134033 116.527161,480.992310 122.636810,480.994995 
	C135.422791,481.000580 148.208771,480.992126 161.736008,480.948456 
	C165.811203,480.320343 166.968536,476.901459 166.421448,473.981445 
	C165.818741,470.764374 167.791275,465.698669 161.793304,464.418854 
z"/>
<path fill="#233D9A" opacity="1.000000" stroke="none" 
	d="
M117.003571,433.004883 
	C117.057594,432.378052 116.990341,431.248505 117.184303,431.201691 
	C119.255463,430.702026 121.364243,430.076416 123.469810,430.049896 
	C132.772614,429.932587 142.090012,429.731628 151.375183,430.153534 
	C154.484589,430.294800 159.178192,431.367767 160.225830,433.470551 
	C162.267578,437.568726 161.648590,443.020538 157.905762,446.254517 
	C155.118912,448.662537 151.073914,450.187042 147.370483,450.815186 
	C142.848221,451.582214 138.096863,450.970154 133.445023,451.008240 
	C126.076294,451.068573 125.411064,451.860687 126.543488,460.003571 
	C135.303940,460.003571 144.213623,459.763367 153.095978,460.150513 
	C155.746811,460.266052 158.321075,462.138062 160.946014,463.629669 
	C160.961609,464.054047 160.808014,464.207977 160.436401,464.117554 
	C155.006851,463.436035 149.961685,462.539276 144.887939,462.327820 
	C137.836548,462.033936 130.763748,462.253906 123.734848,462.253906 
	C123.734848,457.317413 123.734848,453.274750 123.734848,448.906494 
	C131.789230,448.906494 139.427429,449.041565 147.058609,448.868195 
	C154.543732,448.698151 158.572388,444.566315 158.797089,437.477173 
	C158.913361,433.809265 157.731598,432.033661 153.649506,432.115936 
	C143.010208,432.330414 132.363449,432.155975 121.720207,432.222107 
	C120.463402,432.229950 119.209900,432.770264 117.716949,433.050476 
	C117.479034,433.037231 117.003571,433.004883 117.003571,433.004883 
z"/>
<path fill="#233D9A" opacity="1.000000" stroke="none" 
	d="
M160.994751,480.989441 
	C148.208771,480.992126 135.422791,481.000580 122.636810,480.994995 
	C116.527161,480.992310 115.819214,480.134033 116.668106,473.569397 
	C117.270203,474.405182 117.581833,475.187500 117.988037,476.378784 
	C119.620941,477.505676 121.147453,478.816895 122.699478,478.847870 
	C135.458923,479.102112 148.223099,479.118439 160.978302,479.504028 
	C160.978775,480.197266 160.986771,480.593353 160.994751,480.989441 
z"/>
<path fill="#1F3779" opacity="1.000000" stroke="none" 
	d="
M117.893463,475.969818 
	C117.581833,475.187500 117.270203,474.405182 116.925430,473.287933 
	C116.904152,472.227875 116.916008,471.502747 116.946838,470.027039 
	C116.945824,468.501465 116.925827,467.726410 116.905830,466.951385 
	C116.914879,465.265778 116.923927,463.580170 116.950363,461.062744 
	C116.945824,459.135498 116.923920,458.040070 116.902008,456.944611 
	C116.912292,455.260132 116.922577,453.575623 116.950592,451.026489 
	C116.949120,448.092468 116.929916,446.023102 116.910706,443.953766 
	C116.932106,440.608429 116.953506,437.263123 116.989235,433.461334 
	C117.003571,433.004883 117.479034,433.037231 117.774551,433.508514 
	C118.011200,447.976471 117.952332,461.973145 117.893463,475.969818 
z"/>
<path fill="#314BA1" opacity="1.000000" stroke="none" 
	d="
M161.365387,480.968933 
	C160.986771,480.593353 160.978775,480.197266 161.335541,479.370544 
	C162.730682,477.384155 164.739273,475.726807 164.590408,474.293518 
	C164.267822,471.187866 162.841324,468.196899 161.902130,465.058136 
	C161.938019,464.957245 162.030991,464.764313 162.030991,464.764313 
	C167.791275,465.698669 165.818741,470.764374 166.421448,473.981445 
	C166.968536,476.901459 165.811203,480.320343 161.365387,480.968933 
z"/>
<path fill="#233D9A" opacity="1.000000" stroke="none" 
	d="
M116.548325,444.053711 
	C116.929916,446.023102 116.949120,448.092468 116.938560,450.605591 
	C113.832664,449.048004 114.488846,446.655396 116.548325,444.053711 
z"/>
<path fill="#233D9A" opacity="1.000000" stroke="none" 
	d="
M116.569832,457.027710 
	C116.923920,458.040070 116.945824,459.135498 116.937645,460.641602 
	C114.364075,460.132782 114.430183,458.769775 116.569832,457.027710 
z"/>
<path fill="#233D9A" opacity="1.000000" stroke="none" 
	d="
M116.585876,467.020142 
	C116.925827,467.726410 116.945824,468.501465 116.935272,469.663849 
	C116.691795,469.063782 116.478859,468.076355 116.585876,467.020142 
z"/>
<path fill="#233D9A" opacity="1.000000" stroke="none" 
	d="
M161.041534,463.980347 
	C161.378647,464.033844 161.602600,464.204590 161.912140,464.591583 
	C162.030991,464.764313 161.938019,464.957245 161.650299,464.998596 
	C161.177719,464.762604 160.992859,464.485291 160.808014,464.207977 
	C160.808014,464.207977 160.961609,464.054047 161.041534,463.980347 
z"/>
<path fill="#F0F5FB" opacity="1.000000" stroke="none" 
	d="
M160.436401,464.117554 
	C160.992859,464.485291 161.177719,464.762604 161.614410,465.099487 
	C162.841324,468.196899 164.267822,471.187866 164.590408,474.293518 
	C164.739273,475.726807 162.730682,477.384155 161.343079,479.073425 
	C148.223099,479.118439 135.458923,479.102112 122.699478,478.847870 
	C121.147453,478.816895 119.620941,477.505676 117.988037,476.378784 
	C117.952332,461.973145 118.011200,447.976471 118.012466,433.521729 
	C119.209900,432.770264 120.463402,432.229950 121.720207,432.222107 
	C132.363449,432.155975 143.010208,432.330414 153.649506,432.115936 
	C157.731598,432.033661 158.913361,433.809265 158.797089,437.477173 
	C158.572388,444.566315 154.543732,448.698151 147.058609,448.868195 
	C139.427429,449.041565 131.789230,448.906494 123.734848,448.906494 
	C123.734848,453.274750 123.734848,457.317413 123.734848,462.253906 
	C130.763748,462.253906 137.836548,462.033936 144.887939,462.327820 
	C149.961685,462.539276 155.006851,463.436035 160.436401,464.117554 
z"/>
</svg>